<svg width="85" height="76" viewBox="0 0 85 76" fill="none" xmlns="http://www.w3.org/2000/svg">
<path d="M58.9436 63.0152L48.2781 54.5717C45.9673 52.7941 42.5899 53.3274 41.0789 55.816L38.3237 60.4377C29.0803 54.305 21.17 46.3948 15.0374 37.0625L19.6591 34.3073C22.1477 32.7963 22.7699 29.4189 20.9034 27.1081L12.4599 16.4426C11.3933 15.0205 9.52688 14.3095 7.83818 14.665C5.97172 15.0205 4.28302 15.9093 3.03872 17.1536C-3.89384 24.0862 2.77208 42.1286 18.0593 57.4158C33.2576 72.703 51.3 79.3689 58.3215 72.4363C59.4769 71.2809 60.2768 69.6811 60.7212 67.9035C61.0767 66.1259 60.4545 64.1706 58.9436 63.0152Z" fill="#3067F3"/>
<path d="M78.7636 0H36.8127C33.5242 0 30.8578 2.66637 30.8578 5.95489V28.0858C30.8578 31.3743 33.5242 34.0407 36.8127 34.0407H39.7457V42.6619C39.7457 45.2394 42.8565 46.5726 44.723 44.7061L55.4773 33.9518H78.7636C82.0521 33.9518 84.7185 31.2854 84.7185 27.9969V5.95489C84.7185 2.66637 82.0521 0 78.7636 0ZM43.8342 21.1532C41.6122 21.1532 39.7457 19.3756 39.7457 17.0648C39.7457 14.8428 41.5233 12.9763 43.8342 12.9763C46.0561 12.9763 47.9226 14.7539 47.9226 17.0648C47.9226 19.2867 46.145 21.1532 43.8342 21.1532ZM57.7882 21.1532C55.5662 21.1532 53.6997 19.3756 53.6997 17.0648C53.6997 14.8428 55.4773 12.9763 57.7882 12.9763C60.0101 12.9763 61.8766 14.7539 61.8766 17.0648C61.8766 19.2867 60.0101 21.1532 57.7882 21.1532ZM71.6533 21.1532C69.4313 21.1532 67.5649 19.3756 67.5649 17.0648C67.5649 14.8428 69.3424 12.9763 71.6533 12.9763C73.9641 12.9763 75.7417 14.7539 75.7417 17.0648C75.7417 19.2867 73.9641 21.1532 71.6533 21.1532Z" fill="#3067F3"/>
</svg>
