<svg width="77" height="78" viewBox="0 0 77 78" fill="none" xmlns="http://www.w3.org/2000/svg">
<path d="M57.608 0C46.8978 0 38.216 8.77603 38.216 19.6025C38.216 30.429 46.8978 39.205 57.608 39.205C68.3182 39.205 77 30.429 77 19.6025C77 8.77603 68.3182 0 57.608 0ZM66.4521 17.224L57.5269 26.2461C56.9589 26.8202 56.1475 27.1483 55.4173 27.1483C54.6059 27.1483 53.8757 26.8202 53.3077 26.2461L48.8451 21.735C47.628 20.5047 47.628 18.6183 48.8451 17.388C50.0622 16.1577 51.9283 16.1577 53.1454 17.388L55.4984 19.7666L62.2329 12.959C63.4499 11.7287 65.3161 11.7287 66.5332 12.959C67.7503 14.1893 67.588 16.0757 66.4521 17.224Z" fill="#3067F3"/>
<path d="M14.9294 29.5268C22.9954 29.5268 29.5342 22.917 29.5342 14.7634C29.5342 6.6098 22.9954 0 14.9294 0C6.86336 0 0.324552 6.6098 0.324552 14.7634C0.324552 22.917 6.86336 29.5268 14.9294 29.5268Z" fill="#3067F3"/>
<path d="M53.5511 46.5868H40.3256C40.3256 46.5868 27.6681 36.3344 26.5321 35.4322C25.3962 34.53 23.3678 33.6278 21.177 33.6278H8.35722C3.73235 33.6278 0 37.4006 0 42.0757V74.6372C0 76.5237 1.46048 78 3.32666 78H26.2076C28.0738 78 29.5342 76.5237 29.5342 74.6372L29.4531 55.1987L33.7534 58.6435C34.9705 59.6278 36.431 60.1199 37.8915 60.1199H53.3077C56.8778 60.1199 59.961 57.4132 60.2044 53.8044C60.4478 49.8675 57.3646 46.5868 53.5511 46.5868Z" fill="#3067F3"/>
</svg>
