<svg width="90" height="91" viewBox="0 0 90 91" fill="none" xmlns="http://www.w3.org/2000/svg">
<path d="M7.87744 66.8799L0.92688 68.2186C0.676163 68.2561 0.446408 68.38 0.277212 68.5688C0.108016 68.7576 0.00997926 68.9995 0 69.2528V88.9422C0.0113946 89.1088 0.059106 89.271 0.139789 89.4173C0.220471 89.5635 0.332172 89.6904 0.467059 89.7889C0.601946 89.8874 0.756755 89.9553 0.920631 89.9877C1.08451 90.0201 1.25348 90.0162 1.41571 89.9764L8.36615 88.6376C8.61687 88.6001 8.84665 88.4763 9.01585 88.2875C9.18505 88.0987 9.28308 87.8568 9.29303 87.6034V67.9141C9.28165 67.7474 9.23394 67.5853 9.15327 67.439C9.0726 67.2927 8.96091 67.1659 8.82604 67.0674C8.69116 66.9688 8.53636 66.901 8.37249 66.8686C8.20863 66.8362 8.03966 66.8401 7.87744 66.8799ZM4.64655 86.5201C4.39611 86.5457 4.14308 86.5185 3.90381 86.4402C3.66454 86.362 3.44436 86.2343 3.2575 86.0656C3.07064 85.8969 2.92126 85.6909 2.81902 85.4608C2.71678 85.2308 2.66395 84.9818 2.66395 84.7301C2.66395 84.4784 2.71678 84.2294 2.81902 83.9994C2.92126 83.7693 3.07064 83.5633 3.2575 83.3946C3.44436 83.2259 3.66454 83.0983 3.90381 83.02C4.14308 82.9417 4.39611 82.9145 4.64655 82.9402C4.89698 82.9145 5.15 82.9417 5.38926 83.02C5.62852 83.0983 5.84869 83.2259 6.03553 83.3946C6.22238 83.5633 6.37175 83.7693 6.47398 83.9994C6.57622 84.2294 6.62904 84.4784 6.62904 84.7301C6.62904 84.9818 6.57622 85.2308 6.47398 85.4608C6.37175 85.6909 6.22238 85.8969 6.03553 86.0656C5.84869 86.2343 5.62852 86.3619 5.38926 86.4402C5.15 86.5185 4.89698 86.5457 4.64655 86.5201Z" fill="#3067F3"/>
<path d="M68.4942 69.5713C59.3671 76.2878 36.0164 69.0895 51.5886 67.7168C66.6469 66.3896 65.5884 56.843 57.6606 59.2676C50.6001 61.4269 45.9054 58.0239 33.4967 59.9228C25.3724 61.1662 22.2594 62.2563 17.5849 66.7894C17.5223 66.8507 17.4463 66.8966 17.363 66.9235C16.9363 67.0601 15.4563 67.5284 13.35 68.2011C13.2415 68.2315 13.1454 68.2955 13.0755 68.3839C13.0056 68.4723 12.9655 68.5806 12.961 68.6932V83.8491C12.9682 83.9363 12.9953 84.0206 13.0402 84.0957C13.0851 84.1707 13.1467 84.2345 13.22 84.282C13.2934 84.3296 13.3767 84.3597 13.4636 84.3701C13.5504 84.3804 13.6385 84.3708 13.721 84.3418C19.1096 82.7554 22.7717 81.8586 23.1933 81.9953C45.2746 89.1589 51.9503 86.2445 55.6425 84.9142C60.6043 83.1263 68.4943 80.3141 72.6262 78.1987C77.101 75.9078 81.625 69.5356 87.7575 65.7733C94.0087 61.9382 87.0656 55.9049 68.4942 69.5713Z" fill="#3067F3"/>
<path d="M53.9914 57C53.9914 57 84.4569 43.5222 84.4569 15.7242C84.4591 12.0329 83.1618 8.4587 80.7925 5.62817C78.4233 2.79764 75.1332 0.891448 71.4992 0.243805C67.8652 -0.403838 64.1192 0.248401 60.918 2.08617C57.7167 3.92393 55.2646 6.82993 53.9914 10.2947C52.7182 6.82994 50.2661 3.92395 47.0648 2.08619C43.8636 0.248426 40.1176 -0.40381 36.4836 0.243832C32.8496 0.891474 29.5595 2.79766 27.1903 5.62819C24.821 8.45871 23.5237 12.0329 23.5259 15.7242C23.5259 43.5222 53.9914 57 53.9914 57ZM41.9019 24.1824H49.6736V16.4106H58.3091V24.1824H66.0809V32.8177H58.3091V40.5896H49.6736V32.8177H41.9019V24.1824Z" fill="#3067F3"/>
</svg>
