<svg width="77" height="72" viewBox="0 0 77 72" fill="none" xmlns="http://www.w3.org/2000/svg">
<circle cx="45" cy="32" r="32" fill="#F7D7DC"/>
<path d="M52.5 69.1875V34.3762L53.4009 34.9134C53.9794 35.2566 54.6403 35.4375 55.3125 35.4375C56.6306 35.4375 57.8672 34.7334 58.5384 33.6C59.0484 32.7394 59.1928 31.7306 58.9453 30.7594C58.6969 29.7872 58.0865 28.9715 57.2278 28.4625L53.4384 26.2022V15.75H45.9384V21.7294L32.2228 13.5497C30.8784 12.7481 29.1187 12.749 27.7772 13.5497L2.77593 28.4616C1.91436 28.9715 1.30405 29.7881 1.05561 30.7594C0.806238 31.7306 0.95155 32.7394 1.46155 33.6C2.13374 34.7334 3.37124 35.4375 4.68843 35.4375C5.36061 35.4375 6.02155 35.2566 6.60186 34.9116L7.49999 34.3772V69.1875H0.937488V71.0625H59.0625V69.1875H52.5ZM47.8134 17.625H51.5634V25.0847L47.8134 22.8478V17.625ZM5.64467 33.3C4.7878 33.8081 3.58218 33.4987 3.07499 32.6428C2.81999 32.2134 2.7478 31.7091 2.87249 31.2234C2.99718 30.7378 3.30186 30.3291 3.73499 30.0722L28.7381 15.1594C29.5003 14.7047 30.5006 14.7037 31.2628 15.1594L56.2697 30.0731C56.7 30.3281 57.0047 30.7359 57.1294 31.2225C57.2531 31.7091 57.1819 32.2134 56.9259 32.6428C56.4197 33.4987 55.2103 33.8062 54.3591 33.3009L32.2228 20.1112C31.5506 19.7119 30.7828 19.5 30.0009 19.5C29.219 19.5 28.4503 19.7119 27.7781 20.1122L5.64467 33.3ZM27.1875 27.9375C27.1875 26.3869 28.4494 25.125 30 25.125C31.5506 25.125 32.8125 26.3869 32.8125 27.9375C32.8125 29.4881 31.5506 30.75 30 30.75C28.4494 30.75 27.1875 29.4881 27.1875 27.9375ZM30 23.25C27.4153 23.25 25.3125 25.3528 25.3125 27.9375C25.3125 28.9969 25.6791 29.9644 26.2744 30.75H13.5872L28.7372 21.7228C29.4994 21.2681 30.4987 21.2681 31.2628 21.7228L46.4137 30.75H33.7256C34.3209 29.9644 34.6875 28.9969 34.6875 27.9375C34.6875 25.3528 32.5847 23.25 30 23.25ZM9.37499 33.2597L10.44 32.625H49.56L50.625 33.2597V69.1875H45V67.3125C45 60.4912 40.4184 54.7284 34.1728 52.9153C36.1781 51.5672 37.5 49.2797 37.5 46.6875C37.5 42.5522 34.1353 39.1875 30 39.1875C25.8647 39.1875 22.5 42.5522 22.5 46.6875C22.5 49.2797 23.8219 51.5672 25.8272 52.9153C19.5816 54.7284 15 60.4912 15 67.3125V69.1875H9.37499V33.2597ZM24.375 46.6875H24.5362C26.235 46.6875 27.8465 46.1137 29.1478 45.0591L29.7422 45.4547C30.9516 46.2609 32.3597 46.6875 33.8137 46.6875H35.625C35.625 49.7897 33.1022 52.3125 30 52.3125C26.8978 52.3125 24.375 49.7897 24.375 46.6875ZM24.7059 44.8041C25.4831 42.6272 27.5597 41.0625 30 41.0625C32.444 41.0625 34.5225 42.6309 35.2969 44.8125H33.8128C32.7309 44.8125 31.6828 44.4956 30.7819 43.8947L28.9425 42.6684L28.3997 43.2122C27.4078 44.2031 26.1009 44.7619 24.7059 44.8041ZM31.3303 58.7634L34.5431 55.0153C34.8431 55.1269 35.1384 55.245 35.4272 55.3772L34.8525 61.6997L31.3303 58.7634ZM32.565 54.4425L30 57.435L27.435 54.4425C28.2656 54.2775 29.1225 54.1875 30 54.1875C30.8775 54.1875 31.7344 54.2775 32.565 54.4425ZM25.4569 55.0153L28.6697 58.7634L25.1466 61.6987L24.5719 55.3762C24.8615 55.245 25.1569 55.1259 25.4569 55.0153ZM22.7794 56.3634L23.6034 65.4253L26.9728 62.6175L26.3362 69.1875H16.875V67.3125C16.875 62.7422 19.2262 58.7147 22.7794 56.3634ZM29.0212 60.9112L30 60.0956L30.9787 60.9112L31.7803 69.1875H28.2197L29.0212 60.9112ZM33.0281 62.6184L36.3975 65.4262L37.2215 56.3644C40.7737 58.7147 43.125 62.7422 43.125 67.3125V69.1875H33.6637L33.0281 62.6184Z" fill="black"/>
<path d="M20.625 34.5H11.25V45.75H20.625V34.5ZM18.75 43.875H13.125V36.375H18.75V43.875Z" fill="black"/>
<path d="M48.75 34.5H39.375V45.75H48.75V34.5ZM46.875 43.875H41.25V36.375H46.875V43.875Z" fill="black"/>
<path d="M46.875 65.4375H48.75V67.3125H46.875V65.4375Z" fill="black"/>
<path d="M46.875 57.9375H48.75V59.8125H46.875V57.9375Z" fill="black"/>
<path d="M46.875 61.6875H48.75V63.5625H46.875V61.6875Z" fill="black"/>
<path d="M11.25 51.375H13.125V53.25H11.25V51.375Z" fill="black"/>
<path d="M11.25 47.625H13.125V49.5H11.25V47.625Z" fill="black"/>
<path d="M11.25 55.125H13.125V57H11.25V55.125Z" fill="black"/>
</svg>
