<svg width="86" height="72" viewBox="0 0 86 72" fill="none" xmlns="http://www.w3.org/2000/svg">
<circle cx="54" cy="32" r="32" fill="#F7D7DC"/>
<path d="M50.1497 18.376C50.0835 18.376 50.0175 18.3827 49.9527 18.3959C47.9805 18.7929 45.9313 18.4356 44.2097 17.3948L43.778 17.1342C43.7508 17.1207 43.7229 17.1085 43.6944 17.0978C43.6659 17.0841 43.6374 17.0723 43.6079 17.0605C43.3896 16.9798 43.1496 16.9798 42.9313 17.0605C42.9018 17.0723 42.8733 17.0841 42.8448 17.0978C42.8162 17.1085 42.7885 17.1207 42.7612 17.1342L42.3295 17.3948C40.6059 18.4381 38.5532 18.7954 36.5786 18.3959C36.0464 18.2873 35.527 18.6306 35.4184 19.1627C35.4051 19.2275 35.3985 19.2935 35.3985 19.3597V29.2624C35.3985 30.6574 35.7756 32.0264 36.4901 33.2245C37.3162 34.6153 38.5628 35.7076 40.05 36.3439L42.8802 37.5633C43.1269 37.6695 43.4064 37.6695 43.6531 37.5633L46.4843 36.3439C47.97 35.7069 49.2152 34.6146 50.0403 33.2245C50.7551 32.0265 51.1326 30.6575 51.1328 29.2624V19.3597C51.1329 18.8165 50.6927 18.376 50.1497 18.376ZM42.2823 35.1647L40.8239 34.5363C39.7187 34.0623 38.7923 33.2496 38.1786 32.2155C37.6469 31.3231 37.3659 30.304 37.3653 29.2653V20.4895C39.051 20.6237 40.743 20.3269 42.2823 19.627V35.1647ZM49.166 29.2623C49.1654 30.301 48.8844 31.3202 48.3528 32.2125C47.739 33.2467 46.8126 34.0593 45.7074 34.5333L44.2491 35.1656V19.627C45.7884 20.3267 47.4805 20.6234 49.166 20.4895V29.2623Z" fill="black"/>
<path d="M55.8925 36.267C55.6905 35.7629 55.118 35.5179 54.6139 35.7198C54.1097 35.9217 53.8647 36.4942 54.0667 36.9983C54.0742 37.017 54.0823 37.0354 54.0909 37.0536C55.3906 40.0308 56.0577 43.2457 56.0498 46.4942C56.0498 47.0373 56.4901 47.4776 57.0332 47.4776C57.5763 47.4776 58.0166 47.0373 58.0166 46.4942C58.0252 42.9749 57.3018 39.4921 55.8925 36.267Z" fill="black"/>
<path d="M29.4981 20.9261C22.0251 20.9244 14.9258 24.1944 10.0702 29.875C9.71713 30.2878 9.76556 30.9085 10.1783 31.2616C10.5911 31.6146 11.2119 31.5662 11.5649 31.1534C16.0466 25.9094 22.5998 22.8908 29.4981 22.8929C30.0412 22.8929 30.4815 22.4526 30.4815 21.9095C30.4815 21.3664 30.0412 20.9261 29.4981 20.9261Z" fill="black"/>
<path d="M58.1011 54.7647L51.5566 48.2163C51.1941 47.8568 50.787 47.5455 50.3451 47.2899C52.4326 45.553 52.7168 42.4527 50.9799 40.3653C49.243 38.2778 46.1427 37.9936 44.0553 39.7306C41.9678 41.4675 41.6836 44.5678 43.4205 46.6551C43.6562 46.9384 43.9229 47.1942 44.2156 47.4178C43.8634 47.6423 43.5363 47.9041 43.2401 48.1986L41.4523 49.8959C40.8265 50.4939 39.8352 50.4742 39.2337 49.8517L32.6863 43.3032C32.4081 43.0258 32.1026 42.777 31.7747 42.5608C34.492 40.7623 35.237 37.1013 33.4385 34.384C31.64 31.6666 27.979 30.9217 25.2617 32.7202C22.5443 34.5187 21.7994 38.1796 23.5979 40.897C24.0351 41.5577 24.6009 42.1235 25.2617 42.5608C24.9341 42.7776 24.6291 43.0267 24.351 43.3042L19.3406 48.3195L14.9262 45.1491C14.6724 44.9078 14.3976 44.6896 14.1051 44.4971C14.5048 44.2247 14.87 43.9047 15.1927 43.5442H17.6974C18.2405 43.5444 18.681 43.1043 18.6813 42.5613C18.6814 42.4085 18.6459 42.2579 18.5775 42.1212L16.3885 37.7421C16.2133 37.1994 15.9585 36.6857 15.6323 36.2179C15.5778 36.1122 15.5041 36.0174 15.4149 35.9386C13.4124 33.3996 9.73067 32.9647 7.19167 34.9672C6.79831 35.2775 6.44626 35.6371 6.14448 36.0369C6.10576 36.0798 6.07023 36.1254 6.03827 36.1736C5.69962 36.652 5.43434 37.1784 5.25156 37.7353L3.05859 42.1192C2.81471 42.6045 3.0104 43.1956 3.49571 43.4394C3.63043 43.5072 3.77905 43.5429 3.92987 43.5442H6.44245C6.7634 43.9015 7.12664 44.2185 7.52418 44.4882C7.20863 44.6989 6.91423 44.9396 6.64503 45.2071L0.899053 51.018C-0.299582 52.2165 -0.299705 54.1598 0.898807 55.3584C1.47446 55.9341 2.25528 56.2575 3.0694 56.2575C3.7981 56.2549 4.50258 55.9955 5.05881 55.5249L2.97893 63.8837C2.84372 64.4097 3.16049 64.9458 3.68648 65.081C3.76602 65.1014 3.84776 65.1119 3.92987 65.112H5.89666V68.0622C5.89568 69.6871 7.21208 71.0053 8.83714 71.0063C9.56755 71.0068 10.2722 70.7355 10.8136 70.2453C12.0183 71.3359 13.879 71.2433 14.9696 70.0387C15.4598 69.4972 15.7311 68.7926 15.7306 68.0622V65.112H17.6974C18.2405 65.1124 18.6812 64.6724 18.6815 64.1293C18.6815 64.0488 18.6718 63.9687 18.6523 63.8906L16.2262 54.1324L17.5833 54.8335C18.1677 55.1399 18.8207 55.2922 19.4803 55.2761C19.5436 55.28 19.607 55.2784 19.6701 55.2712C19.7134 55.2712 19.7586 55.278 19.7832 55.278C20.5972 55.2757 21.3775 54.9524 21.9545 54.3782L23.5978 52.735V68.0622C23.5931 69.6855 24.9052 71.0053 26.5285 71.01C27.2629 71.0121 27.9714 70.7393 28.5147 70.2453C29.7194 71.3359 31.5801 71.2433 32.6707 70.0387C33.1609 69.4972 33.4322 68.7926 33.4317 68.0622V52.735L36.5786 55.8818C38.0578 57.4071 40.3166 57.8783 42.2823 57.0717V68.0622C42.2776 69.6855 43.5897 71.0053 45.213 71.01C45.9474 71.0121 46.6559 70.7393 47.1992 70.2453C48.4039 71.3359 50.2646 71.2433 51.3552 70.0387C51.8454 69.4972 52.1167 68.7926 52.1162 68.0622V57.5566L53.7594 59.1054C54.9587 60.304 56.9026 60.3036 58.1013 59.1043C58.6764 58.5289 58.9996 57.7487 59 56.9351C59.0023 56.1206 58.6786 55.339 58.1011 54.7647ZM47.1992 40.594C48.8286 40.594 50.1494 41.9148 50.1494 43.5442C50.1494 45.1735 48.8286 46.4944 47.1992 46.4944C45.5699 46.4944 44.249 45.1735 44.249 43.5442C44.249 41.9148 45.5699 40.594 47.1992 40.594ZM24.5812 37.6438C24.5812 35.4714 26.3423 33.7102 28.5147 33.7102C30.6872 33.7102 32.4483 35.4714 32.4483 37.6438C32.4483 39.8162 30.6872 41.5774 28.5147 41.5774C26.3423 41.5774 24.5812 39.8162 24.5812 37.6438ZM6.90366 41.5774H5.52691L7.0374 38.5525C7.05965 38.508 7.0787 38.462 7.09444 38.4148C7.21712 38.0233 7.40027 37.6533 7.63727 37.3183C7.65497 37.2976 7.67366 37.276 7.69037 37.2534C8.96842 35.5263 11.4045 35.1623 13.1317 36.4404C13.4415 36.6696 13.7155 36.9436 13.9448 37.2534C13.9605 37.275 13.9782 37.2957 13.9959 37.3163C14.2342 37.6514 14.4181 38.0222 14.5407 38.4148C14.5564 38.462 14.5755 38.508 14.5977 38.5525L16.1102 41.5774H14.7334C14.4239 41.5774 14.1325 41.7232 13.9467 41.9707C13.2687 42.871 12.233 43.4326 11.1087 43.5098C10.9071 43.4999 10.7084 43.4979 10.5068 43.5098C9.39017 43.4263 8.36375 42.8654 7.69037 41.9707C7.50464 41.7232 7.21318 41.5774 6.90366 41.5774ZM56.7122 57.7143C56.5058 57.9209 56.2258 58.0371 55.9337 58.0374C55.632 58.0345 55.3438 57.9114 55.1331 57.6952L51.8112 54.5582C51.4181 54.1834 50.7956 54.1983 50.4209 54.5914C50.2447 54.7763 50.1472 55.0226 50.1493 55.278V68.0622C50.1493 68.6052 49.709 69.0456 49.1659 69.0456C48.6228 69.0456 48.1825 68.6052 48.1825 68.0622V60.7044C48.1825 60.1613 47.7422 59.721 47.1991 59.721C46.656 59.721 46.2157 60.1613 46.2157 60.7044V68.0622C46.2157 68.6052 45.7754 69.0456 45.2323 69.0456C44.6892 69.0456 44.2489 68.6052 44.2489 68.0622V55.278C44.2492 54.735 43.8091 54.2945 43.2659 54.2943C43.015 54.2941 42.7735 54.39 42.5909 54.5621C41.3195 55.8177 39.2711 55.8049 38.0156 54.5335C37.9998 54.5176 37.9843 54.5015 37.969 54.4854L33.1503 49.6668C32.7701 49.279 32.1475 49.2729 31.7597 49.6531C31.5696 49.8395 31.4633 50.0949 31.4648 50.3611V68.0622C31.4648 68.6052 31.0245 69.0456 30.4814 69.0456C29.9383 69.0456 29.498 68.6052 29.498 68.0622V56.2614C29.498 55.7183 29.0577 55.278 28.5146 55.278C27.9715 55.278 27.5312 55.7183 27.5312 56.2614V68.0622C27.5312 68.6052 27.0909 69.0456 26.5478 69.0456C26.0047 69.0456 25.5644 68.6052 25.5644 68.0622V50.3611C25.5643 49.818 25.124 49.3778 24.5808 49.3779C24.3201 49.3779 24.0702 49.4815 23.8858 49.6658L20.5668 52.9848C20.3771 53.1765 20.1239 53.2922 19.8548 53.3103C19.8293 53.3103 19.7565 53.2985 19.727 53.2965C19.6975 53.2945 19.6759 53.2965 19.6513 53.2965C19.6054 53.2931 19.5595 53.2931 19.5136 53.2965C19.4803 53.2965 19.4471 53.3014 19.4153 53.3112C19.0943 53.3108 18.7781 53.2339 18.4928 53.087L15.2054 51.3867C14.723 51.1372 14.1296 51.326 13.8801 51.8084C13.7705 52.0204 13.7416 52.2652 13.7991 52.497L16.4464 63.1452H14.7472C14.2041 63.1452 13.7638 63.5855 13.7638 64.1286V68.0622C13.7638 68.6052 13.3235 69.0456 12.7804 69.0456C12.2373 69.0456 11.797 68.6052 11.797 68.0622V64.1286C11.797 63.5855 11.3567 63.1452 10.8136 63.1452C10.2706 63.1452 9.83024 63.5855 9.83024 64.1286V68.0622C9.83024 68.6052 9.38993 69.0456 8.84685 69.0456C8.30377 69.0456 7.86345 68.6052 7.86345 68.0622V64.1286C7.86345 63.5855 7.42314 63.1452 6.88006 63.1452H5.19157L7.83887 52.4931C7.96929 51.9658 7.64772 51.4327 7.1205 51.3022C6.7811 51.2182 6.42253 51.3207 6.1789 51.5715L3.84924 53.968C3.42109 54.4008 2.72313 54.4047 2.29031 53.9766C2.08085 53.7694 1.96296 53.4869 1.96321 53.1921C1.96149 52.8966 2.07925 52.6129 2.2897 52.4054L8.04059 46.5926C8.6707 45.9684 9.49503 45.5781 10.3771 45.4863C10.5237 45.4971 10.6721 45.5099 10.8177 45.5099C10.9632 45.5099 11.1127 45.4971 11.2583 45.4863C12.1404 45.5781 12.9647 45.9684 13.5948 46.5926C13.6324 46.6307 13.6732 46.6656 13.7167 46.6968L18.8717 50.3983C19.2631 50.6788 19.8 50.6347 20.1403 50.2941L25.7456 44.6887C27.2808 43.1583 29.7646 43.1583 31.2998 44.6887L37.8571 51.2578C39.2116 52.6277 41.4151 52.6561 42.8046 51.3217L44.6101 49.6077C46.1641 48.1236 48.6103 48.1236 50.1643 49.6077L56.7117 56.1551C57.1423 56.5856 57.1426 57.2835 56.7122 57.7143Z" fill="black"/>
</svg>
