<svg width="74" height="75" viewBox="0 0 74 75" fill="none" xmlns="http://www.w3.org/2000/svg">
<circle cx="42" cy="32" r="32" fill="#F7D7DC"/>
<path d="M10.6481 18.3262C10.4411 18.1191 10.1538 18 9.86105 18C9.56826 18 9.28103 18.1191 9.07396 18.3262C8.86689 18.5333 8.74777 18.8205 8.74777 19.1133C8.74777 19.4061 8.86689 19.6933 9.07396 19.9004C9.28103 20.1074 9.56826 20.2265 9.86105 20.2265C10.1538 20.2265 10.4411 20.1074 10.6481 19.9004C10.8552 19.6933 10.9743 19.4061 10.9743 19.1133C10.9743 18.8205 10.8552 18.5333 10.6481 18.3262Z" fill="black"/>
<path d="M46.8461 45.8785C46.8196 45.7673 46.7766 45.6627 46.7195 45.5673C46.2555 44.4559 45.6899 43.3848 45.0256 42.3712L44.413 41.4365C44.3814 41.3883 44.3458 41.3445 44.3083 41.3028C44.4919 40.9017 44.5951 40.4564 44.5951 39.9873C44.5951 37.3783 42.4727 35.2558 39.8637 35.2558H37.2439C37.8758 34.3787 38.2495 33.3037 38.2495 32.1426C38.2495 30.553 37.5712 29.0321 36.3886 27.9698L25.634 18.3097C25.1766 17.8989 24.4728 17.9364 24.0619 18.394C23.6511 18.8513 23.6887 19.5552 24.1462 19.9661L34.9006 29.6261C35.6138 30.2667 36.0228 31.1839 36.0228 32.1426C36.0228 33.8591 34.6262 35.2557 32.9096 35.2557H32.7943C32.7318 35.2557 32.6696 35.261 32.6082 35.2714L21.5115 37.154C21.5022 37.1555 21.4831 37.1588 21.4609 37.1402C21.4389 37.1216 21.4389 37.1021 21.4389 37.0928V25.1249C21.4389 24.5101 20.9405 24.0117 20.3256 24.0117C19.7108 24.0117 19.2123 24.5101 19.2123 25.1249V37.0926C19.2123 37.768 19.5083 38.4053 20.0241 38.841C20.54 39.2769 21.218 39.4618 21.8838 39.349L32.8881 37.4823H39.8637C41.2449 37.4823 42.3686 38.6059 42.3686 39.9872C42.3686 40.5089 41.9441 40.9334 41.4223 40.9334H33.0171C32.8719 40.9334 32.7281 40.9618 32.5938 41.017L20.6421 45.9306C18.8935 46.6495 16.8975 46.6264 15.1659 45.8671C12.6195 44.7506 10.9742 42.2326 10.9742 39.4522V22.5644C10.9742 21.9495 10.4758 21.4511 9.86094 21.4511C9.24608 21.4511 8.74767 21.9495 8.74767 22.5644V39.4522C8.74767 42.8189 10.579 45.8924 13.4791 47.5108V51.7748C13.4791 52.6611 13.3373 53.5369 13.0576 54.3779C11.024 60.4931 10.8544 67.0091 12.567 73.2217L12.8317 74.1823C12.9679 74.676 13.4159 75 13.9044 75C14.0023 75 14.1019 74.9869 14.2009 74.9597C14.7936 74.7962 15.1417 74.1833 14.9783 73.5906L14.7136 72.63C13.1186 66.8442 13.2766 60.7758 15.1705 55.0806C15.5256 54.0126 15.7057 52.9005 15.7057 51.775V48.3956C16.4503 48.5835 17.215 48.6793 17.9801 48.6793C19.175 48.6793 20.3704 48.4497 21.4889 47.9899L33.2369 43.16H41.4222C41.8777 43.16 42.3108 43.0627 42.7028 42.8891L43.1633 43.5918C43.7455 44.48 44.2374 45.4036 44.6419 46.351C44.5317 47.8465 43.2805 49.0299 41.7573 49.0299C39.316 49.0299 37.2697 50.7478 36.7603 53.0378C36.6904 53.0376 36.6205 53.0393 36.5504 53.0449C35.8963 53.0969 34.9228 53.4265 33.9993 54.7018C33.8546 54.9017 33.5716 54.993 33.2294 55.0141C34.0422 54.1051 34.5375 52.9066 34.5375 51.594C34.5375 48.7613 32.2328 46.4566 29.4 46.4566C26.5673 46.4566 24.2627 48.7613 24.2627 51.594C24.2627 52.4996 24.4991 53.3506 24.9121 54.0901C24.8992 54.1316 24.8878 54.1741 24.8797 54.2179C24.8673 54.2844 24.5811 55.8669 24.9719 57.7538C25.5055 60.3308 27.0255 62.2622 29.3676 63.3391C31.0626 64.1184 32.5498 64.4411 33.8266 64.441C36.3847 64.4409 38.0964 63.1446 38.9306 61.6264C39.0046 61.7227 39.0699 61.829 39.0954 61.9005C39.3068 62.6592 40.0903 63.0918 41.0491 62.9775C42.2541 62.8336 43.5745 61.8572 43.626 60.0537C43.668 58.5833 42.7656 56.9272 41.3803 55.9327C40.7151 55.4552 40.0105 55.1856 39.3131 55.1285C39.2274 54.7146 39.0652 54.3555 38.8655 54.0818C38.9019 52.5177 40.1847 51.2564 41.7573 51.2564C43.3086 51.2564 44.7001 50.5618 45.6398 49.4685C46.8506 54.9937 45.3233 60.8981 41.2318 65.2169C39.811 66.7164 39.0286 68.6799 39.0286 70.7456V73.8864C39.0286 74.5012 39.5271 74.9996 40.1419 74.9996C40.7568 74.9996 41.2552 74.5012 41.2552 73.8864V70.7457C41.2552 69.2521 41.821 67.8325 42.8481 66.7482C45.8898 63.5376 47.7815 59.3433 48.1751 54.9382C48.4507 51.8524 47.9835 48.7386 46.8461 45.8785ZM29.4001 48.6833C31.0052 48.6833 32.311 49.989 32.311 51.5942C32.311 53.1992 31.0053 54.5049 29.4001 54.5049C27.7951 54.5049 26.4894 53.1992 26.4894 51.5942C26.4894 49.989 27.7951 48.6833 29.4001 48.6833ZM38.9999 57.3468C39.4373 57.3364 39.8483 57.5739 40.0819 57.7415C40.8417 58.2871 41.421 59.2747 41.4005 59.9903C41.3928 60.2598 41.3143 60.4571 41.1603 60.5934C41.103 60.6443 41.0417 60.6815 40.9836 60.7082C40.6291 60.0752 39.9596 59.3163 39.03 59.2178C38.6428 59.1769 37.6712 59.2185 37.0135 60.49C36.2229 62.0185 34.0435 63.0382 30.2978 61.3161C27.6593 60.1029 27.0747 57.7064 26.9967 56.1326C27.7143 56.5142 28.5322 56.7314 29.4001 56.7314C29.6913 56.7314 29.9765 56.7058 30.2546 56.659C30.7962 56.8822 34.2281 58.1822 35.8028 56.0076C36.1251 55.5625 36.4706 55.2848 36.7269 55.2644C36.8755 55.2532 36.998 55.3336 37.0795 55.4104C37.1237 55.4864 37.2241 55.7823 37.0738 56.1963C36.7298 57.1441 35.3597 58.0086 33.315 58.5686C32.7219 58.731 32.3729 59.3433 32.5352 59.9364C32.6707 60.431 33.1192 60.7558 33.6083 60.7558C33.7057 60.7558 33.8046 60.7429 33.903 60.7161C37.0583 59.8521 38.428 58.5095 38.9999 57.3468Z" fill="black"/>
</svg>
