<svg width="76" height="74" viewBox="0 0 76 74" fill="none" xmlns="http://www.w3.org/2000/svg">
<circle cx="44" cy="32" r="32" fill="#F7D7DC"/>
<path d="M55.6588 42.0166C55.6133 41.7674 55.4828 41.5417 55.2893 41.378C53.478 39.8458 53.1722 38.1563 52.9265 36.7988L52.8943 36.622C52.8094 36.1587 52.4373 35.8017 51.971 35.736C51.81 35.7134 51.6395 35.7018 51.4644 35.7018C50.4235 35.7018 48.957 36.1404 48.0272 37.1201C47.8686 37.2873 47.7668 37.5004 47.7364 37.7289C47.6582 38.3166 47.6179 38.8545 47.5825 39.3291C47.4485 41.1175 47.3301 41.3072 46.7853 41.4795C46.4438 41.5876 46.1769 41.8559 46.0707 42.1978C45.5576 43.8496 44.8768 45.4303 44.0527 46.9216C43.6458 46.1446 43.196 45.4457 42.7774 44.7954C41.7537 43.2048 40.945 41.9483 41.2213 40.3911C42.1166 35.3442 41.6621 31.5423 39.8701 29.091C38.8722 27.7259 37.4505 26.7952 35.7229 26.3604C36.0667 23.6772 37.9314 22.4608 38.9635 22.1842C39.547 22.0279 39.8933 21.428 39.7369 20.8445C39.5805 20.2611 38.9807 19.9145 38.3974 20.0711C36.2662 20.6422 33.9898 22.7386 33.555 26.087C31.8094 26.0821 30.224 26.6152 28.9194 27.6575C26.5355 29.5623 25.0951 33.1019 24.6383 38.1777C24.5008 39.7052 23.5127 40.5963 22.1449 41.8295C21.0285 42.8362 19.785 43.9602 18.7888 45.6593C17.5479 45.154 16.2168 44.8262 14.8269 44.7075C15.2208 42.1315 17.0326 40.9553 18.0448 40.6842C18.6283 40.5279 18.9746 39.9281 18.8182 39.3447C18.6618 38.7611 18.062 38.4146 17.4787 38.5713C16.9291 38.7185 16.37 38.9684 15.8351 39.3138C15.5863 38.0856 14.9843 36.9337 14.0727 36.0223C12.8515 34.801 11.2276 34.1284 9.50031 34.1284C8.93495 34.1284 8.37189 34.2023 7.82666 34.3477C7.44855 34.4487 7.15312 34.7441 7.05217 35.1222C6.45794 37.3476 7.09953 39.7409 8.72659 41.3683C9.85874 42.5004 11.3374 43.16 12.9233 43.2504C12.7851 43.703 12.6823 44.1847 12.6225 44.6955C5.57342 45.2251 0 51.1296 0 58.3116C0 65.8408 6.12555 71.9664 13.6547 71.9664C16.453 71.9664 19.1184 71.1347 21.4003 69.5571C21.7597 69.7148 22.1203 69.8666 22.4826 70.0095C25.7743 71.3078 29.1011 71.9663 32.3702 71.9663C37.6285 71.9663 42.5088 70.2482 46.4835 66.9977C50.6379 63.6002 53.6997 58.573 55.3377 52.4596C55.8722 50.4657 56.3438 45.7676 55.6588 42.0166ZM23.61 43.4542C25.0812 42.1275 26.6025 40.7556 26.817 38.3739C27.2183 33.9153 28.385 30.8847 30.285 29.3667C31.4128 28.4656 32.8069 28.1181 34.429 28.3349C36.0309 28.5487 37.2675 29.2374 38.1043 30.3821C39.5305 32.3332 39.8546 35.5722 39.0673 40.0091C38.6411 42.4111 39.8088 44.2251 40.938 45.9794C41.5708 46.9626 42.2223 47.9764 42.6652 49.1564C38.979 54.4796 33.3854 58.3617 27.2305 59.7832C27.283 59.2952 27.3097 58.8036 27.3097 58.3116C27.3097 53.3778 24.6792 49.0469 20.7471 46.6471C21.5655 45.3002 22.6017 44.3635 23.61 43.4542ZM10.2732 39.8214C9.3543 38.9024 8.91045 37.6139 9.04455 36.3399C9.1957 36.3239 9.34762 36.3157 9.50009 36.3157C10.643 36.3157 11.7176 36.7608 12.5256 37.5688C13.4446 38.4878 13.8885 39.7765 13.7543 41.0504C13.6033 41.0663 13.4513 41.0744 13.2991 41.0744H13.2989C12.1557 41.0745 11.0812 40.6295 10.2732 39.8214ZM13.6547 69.7789C7.33162 69.7789 2.1875 64.6348 2.1875 58.3116C2.1875 51.9884 7.33162 46.8443 13.6547 46.8443C19.9779 46.8443 25.1221 51.9884 25.1221 58.3116C25.1221 58.942 25.0706 59.5714 24.9688 60.1905C24.2652 60.2813 23.5568 60.339 22.845 60.3632C22.9949 59.6924 23.0732 59.007 23.0732 58.3116C23.0732 57.0798 22.8362 55.8773 22.3688 54.7378C22.1397 54.1791 21.501 53.9115 20.9418 54.1409C20.383 54.3701 20.1157 55.009 20.345 55.5679C20.7038 56.4428 20.8857 57.3658 20.8857 58.3116C20.8857 58.9993 20.7882 59.6749 20.5977 60.3291C19.0323 60.2284 17.4647 59.9697 15.9201 59.5558C15.6055 59.4715 15.2695 59.5319 15.0038 59.7204C14.0317 60.4106 13.0519 61.2787 12.4709 62.9432C12.3212 63.3721 12.4522 63.849 12.8002 64.1413C14.8094 65.829 16.9086 67.2598 19.071 68.4212C17.4158 69.3127 15.5728 69.7789 13.6547 69.7789ZM53.2248 51.8936C50.2239 63.0928 42.4279 69.7789 32.3703 69.7789C26.4988 69.7789 20.3011 67.3717 14.8384 62.9846C15.1279 62.4649 15.4859 62.1071 15.8705 61.8017C17.9244 62.3085 20.013 62.5651 22.0871 62.5651C27.9571 62.5651 33.6172 60.5647 38.4553 56.7802C40.915 54.8562 43.0468 52.5378 44.7545 49.967C44.7748 49.9395 44.794 49.911 44.8116 49.8817C46.1596 47.8365 47.2394 45.6329 48.0009 43.3415C49.5337 42.5702 49.6507 41.0079 49.7641 39.4924C49.79 39.146 49.8166 38.7908 49.8572 38.4159C50.1481 38.2053 50.5337 38.0385 50.9202 37.9527C51.2117 39.3434 51.7785 41.1286 53.5695 42.7769C54.0762 45.9994 53.7083 50.0892 53.2248 51.8936Z" fill="black"/>
<path d="M35.2737 30.5857C34.7169 30.3525 34.0757 30.6144 33.8421 31.1715C33.6084 31.7285 33.8706 32.3695 34.4278 32.6031C35.2235 32.9367 35.6628 35.3376 34.963 39.2809C34.8575 39.8757 35.2541 40.4434 35.849 40.549C35.9136 40.5605 35.9779 40.566 36.0414 40.566C36.5617 40.566 37.023 40.1933 37.1171 39.6633C37.7429 36.137 37.931 31.6998 35.2737 30.5857Z" fill="black"/>
<path d="M42.5033 61.8912C42.141 61.4079 41.4542 61.3108 40.971 61.6734C40.9706 61.6736 40.9658 61.6771 40.9655 61.6774C40.4784 62.034 40.3746 62.7165 40.7308 63.2039C40.9446 63.4964 41.2773 63.6511 41.6146 63.6511C41.8392 63.6511 42.0659 63.5825 42.2608 63.44L42.2859 63.4216C42.7691 63.0591 42.8658 62.3745 42.5033 61.8912Z" fill="black"/>
<path d="M39.9933 63.6599C39.718 63.1222 39.0591 62.9093 38.5213 63.1844C34.7778 65.0993 31.6193 65.0235 31.5727 65.0214C30.9715 65.0005 30.4636 65.4691 30.4399 66.0718C30.4163 66.6753 30.8864 67.1838 31.49 67.2074C31.5068 67.2081 31.5656 67.21 31.6633 67.21C32.445 67.21 35.703 67.083 39.5175 65.1317C40.0553 64.8568 40.2683 64.1977 39.9933 63.6599Z" fill="black"/>
<path d="M20.3483 51.6857L20.3123 51.6496C19.8841 51.2238 19.1917 51.2254 18.7656 51.6537C18.3395 52.082 18.3414 52.7746 18.7697 53.2006L18.7932 53.2241C19.0072 53.4405 19.2889 53.5486 19.5708 53.5486C19.8487 53.5486 20.1268 53.4433 20.34 53.2324C20.7694 52.8077 20.7731 52.1151 20.3483 51.6857Z" fill="black"/>
</svg>
