<svg width="76" height="74" viewBox="0 0 76 74" fill="none" xmlns="http://www.w3.org/2000/svg">
<circle cx="44" cy="32" r="32" fill="#F7D7DC"/>
<g clip-path="url(#clip0)">
<path d="M57.9298 48.3322C57.5012 45.3629 55.1685 43.0302 52.1992 42.6016V40.8443C52.1992 35.9955 48.5134 32.0477 43.9827 32.0477C39.5825 32.0477 35.8986 35.8757 35.7661 40.5813H35.8222L35.7661 40.591V59.6408C35.7661 65.7307 31.2132 70.6761 25.6163 70.6761C20.0194 70.6761 15.4664 65.724 15.4664 59.6408V57.9908C16.8681 57.9908 18.3664 56.9748 18.3664 54.1241V51.693C24.5704 50.1067 28.9996 44.7795 28.9996 38.7399V36.7244H27.0663L27.0257 24.1434C27.0116 21.8146 25.3405 19.8262 23.0489 19.4116C22.5545 17.8973 20.9261 17.0703 19.4116 17.5647C17.8972 18.0591 17.0702 19.6875 17.5647 21.202C18.059 22.7164 19.6874 23.5434 21.2019 23.0489C22.0128 22.7842 22.665 22.1741 22.9831 21.3827C24.2215 21.735 25.0794 22.8616 25.0895 24.1492L25.133 36.7244H23.1996V38.7679C23.1226 42.1303 20.8683 45.0522 17.6356 45.9801C15.9059 46.5289 14.0487 46.5289 12.319 45.9801C9.09003 45.0491 6.84088 42.1276 6.76656 38.7679V36.7244H3.86661V24.1579C3.87217 22.8514 4.75085 21.7097 6.01258 21.3701C6.6009 22.8678 8.29194 23.6049 9.78965 23.0165C11.2874 22.4282 12.0244 20.737 11.4361 19.2395C10.8478 17.7419 9.15661 17.0047 7.65903 17.593C6.84752 17.9119 6.22137 18.5773 5.95264 19.4068C3.63594 19.8027 1.93971 21.8076 1.9333 24.1579V36.7244H0V38.735C0 44.7814 4.4321 50.1106 10.6332 51.693V54.1241C10.6332 56.9748 12.1315 57.9908 13.5331 57.9908V59.6408C13.5331 66.7941 18.9531 72.6094 25.6163 72.6094C32.2794 72.6094 37.6994 66.7873 37.6994 59.6408V40.6374C37.7961 36.969 40.6168 33.9839 43.9827 33.9839C47.4472 33.9839 50.2659 37.0618 50.2659 40.8472V42.6016C46.5671 43.1355 44.0015 46.5667 44.5354 50.2655C45.0692 53.9643 48.5004 56.5299 52.1992 55.9961C55.898 55.4622 58.4636 52.0309 57.9298 48.3322ZM20.2997 21.258C19.7659 21.258 19.333 20.8251 19.333 20.2913C19.333 19.7575 19.7659 19.3246 20.2997 19.3246C20.8335 19.3246 21.2663 19.7575 21.2663 20.2913C21.2663 20.8251 20.8335 21.258 20.2997 21.258ZM8.69987 19.3246C9.2337 19.3246 9.66652 19.7575 9.66652 20.2913C9.66652 20.8251 9.2337 21.258 8.69987 21.258C8.16604 21.258 7.73322 20.8251 7.73322 20.2913C7.73322 19.7575 8.16604 19.3246 8.69987 19.3246ZM1.9333 38.735V38.6577H4.83326V38.7679C4.90576 42.9693 7.70095 46.636 11.7332 47.8187C13.8462 48.4877 16.1142 48.4877 18.2272 47.8187C22.2614 46.6375 25.0591 42.9708 25.133 38.7679V38.6577H27.0663V38.735C27.0663 44.1125 22.9213 48.8443 17.2064 49.9888C15.8645 50.2575 14.4899 50.325 13.1281 50.1889C12.6798 50.1454 12.2342 50.078 11.7932 49.9869C6.07831 48.8443 1.9333 44.1125 1.9333 38.735ZM13.5331 56.0574C12.6631 56.0574 12.5665 54.7041 12.5665 54.1241V52.0729C12.6438 52.0826 12.7231 52.0864 12.8014 52.0942C12.898 52.1048 12.9947 52.1125 13.0914 52.1212C13.5486 52.1618 14.0097 52.1889 14.4746 52.1899H14.523C14.987 52.1899 15.4471 52.1618 15.9014 52.1212C15.9981 52.1125 16.1006 52.1048 16.2001 52.0942C16.2765 52.0855 16.3558 52.0826 16.4321 52.0729V54.1241C16.4321 54.7041 16.3355 56.0574 15.4655 56.0574H13.5331ZM51.2326 54.1241C48.5633 54.1241 46.3993 51.9602 46.3993 49.2909C46.3993 46.6216 48.5633 44.4576 51.2326 44.4576C53.9019 44.4576 56.0658 46.6216 56.0658 49.2909C56.0627 51.959 53.9005 54.121 51.2326 54.1241Z" fill="black"/>
<path d="M51.2326 46.3909C49.631 46.3909 48.3326 47.6893 48.3326 49.2909C48.3326 50.8925 49.631 52.1908 51.2326 52.1908C52.8342 52.1908 54.1326 50.8925 54.1326 49.2909C54.1326 47.6893 52.8342 46.3909 51.2326 46.3909ZM51.2326 50.2575C50.6988 50.2575 50.2659 49.8247 50.2659 49.2909C50.2659 48.757 50.6988 48.3242 51.2326 48.3242C51.7664 48.3242 52.1992 48.757 52.1992 49.2909C52.1992 49.8247 51.7664 50.2575 51.2326 50.2575Z" fill="black"/>
</g>
<defs>
<clipPath id="clip0">
<rect y="16" width="58" height="58" fill="white"/>
</clipPath>
</defs>
</svg>
