<svg width="77" height="74" viewBox="0 0 77 74" fill="none" xmlns="http://www.w3.org/2000/svg">
<circle cx="45" cy="32" r="32" fill="#F7D7DC"/>
<g clip-path="url(#clip0)">
<path d="M9.57138 42.3604C9.10758 42.3604 8.73163 42.7363 8.73163 43.2001V44.7169C8.73163 50.9802 11.5693 56.7747 16.517 60.6147L24.4495 66.7712C24.7425 66.9986 25.0936 67.1123 25.4449 67.1123C25.7961 67.1123 26.1472 66.9986 26.4404 66.7712L32.6448 61.9557C33.0112 61.6712 33.0776 61.1437 32.7933 60.7774C32.509 60.4111 31.9815 60.3445 31.615 60.6289L25.4449 65.4177L17.5468 59.2879C13.012 55.7683 10.4111 50.4575 10.4111 44.7169V43.2001C10.4111 42.7363 10.0352 42.3604 9.57138 42.3604Z" fill="black"/>
<path d="M25.4448 68.252C24.809 68.252 24.2936 68.7675 24.2936 69.4033C24.2936 70.039 24.809 70.5545 25.4448 70.5545C26.0806 70.5545 26.5961 70.039 26.5961 69.4033C26.5961 68.7674 26.0806 68.252 25.4448 68.252Z" fill="black"/>
<path d="M25.4448 21.5292C24.809 21.5292 24.2936 22.0446 24.2936 22.6804C24.2936 23.3162 24.809 23.8317 25.4448 23.8317C26.0806 23.8317 26.5961 23.3162 26.5961 22.6804C26.5961 22.0445 26.0806 21.5292 25.4448 21.5292Z" fill="black"/>
<path d="M42.775 29.4628C42.775 30.0986 43.2904 30.614 43.9262 30.614C44.562 30.614 45.0775 30.0986 45.0775 29.4628C45.0775 28.827 44.562 28.3115 43.9262 28.3115C43.2904 28.3115 42.775 28.827 42.775 29.4628Z" fill="black"/>
<path d="M5.67499 29.4628C5.67499 30.0986 6.19044 30.614 6.82623 30.614C7.46203 30.614 7.97748 30.0986 7.97748 29.4628C7.97748 28.827 7.46203 28.3115 6.82623 28.3115C6.19044 28.3115 5.67499 28.827 5.67499 29.4628Z" fill="black"/>
<path d="M53.099 68.494V48.124C54.0816 47.6622 54.7639 46.6633 54.7639 45.5076C54.7639 43.9144 53.4677 42.6182 51.8744 42.6182H42.1581V32.4212C42.1581 31.5946 41.5395 30.9013 40.7194 30.8087C37.5179 30.4474 34.5359 29.7683 31.8559 28.7901C30.0579 28.134 28.4313 27.3508 27.0211 26.4621C26.0636 25.8585 24.8262 25.8586 23.8685 26.4622C22.4582 27.351 20.8316 28.1341 19.0338 28.7901C16.3538 29.7682 13.3718 30.4474 10.1703 30.8087C9.35013 30.9013 8.7316 31.5946 8.7316 32.4212V39.229C8.7316 39.6928 9.10755 40.0687 9.57134 40.0687C10.0351 40.0687 10.4111 39.6928 10.4111 39.229V32.4717C13.7249 32.094 16.8194 31.3862 19.6095 30.3679C21.5189 29.6713 23.2531 28.8352 24.764 27.8831C25.184 27.6186 25.7058 27.6183 26.1257 27.883C27.6364 28.8352 29.3707 29.6711 31.2802 30.3679C34.0703 31.3863 37.1649 32.0939 40.4786 32.4717V42.618H35.978C34.3847 42.618 33.0885 43.9142 33.0885 45.5075C33.0885 46.6675 33.776 47.6695 34.7646 48.1289V66.4064L28.489 71.277C27.622 71.9498 26.5409 72.3204 25.4448 72.3204C24.3329 72.3204 23.2803 71.9597 22.4009 71.2771L13.4436 64.3252C10.4943 62.0362 8.06752 59.054 6.42554 55.7011C4.78357 52.3485 3.91576 48.6029 3.91576 44.8695V26.5666C3.91576 26.3521 4.09033 26.1763 4.30485 26.1748L7.02761 26.155C16.3332 26.0874 20.8635 22.9363 22.7358 21.0641C23.3061 20.4937 23.8363 19.8836 24.3114 19.2507C24.5841 18.8875 25 18.6794 25.453 18.6794C25.4542 18.6794 25.4553 18.6794 25.4565 18.6795C25.9075 18.6805 26.3204 18.8887 26.5893 19.2504C27.067 19.8931 27.5935 20.5033 28.1543 21.0641C29.6617 22.5714 34.2097 26.0849 43.8625 26.155L46.5853 26.1748C46.7998 26.1763 46.9744 26.3521 46.9744 26.5666V39.194C46.9744 39.6578 47.3503 40.0338 47.8141 40.0338C48.2779 40.0338 48.6539 39.6578 48.6539 39.194V26.5666C48.6539 25.4328 47.7314 24.5036 46.5976 24.4953L43.8749 24.4755C34.8435 24.4099 30.7031 21.2374 29.3421 19.8766C28.839 19.3734 28.3664 18.8257 27.9374 18.2485C27.349 17.4573 26.4464 17.0023 25.4604 17C25.4579 17 25.4553 17 25.4527 17C24.4665 17 23.5612 17.4524 22.9681 18.2423C22.5404 18.8121 22.0626 19.3619 21.548 19.8765C19.8575 21.567 15.7218 24.4122 7.01525 24.4755L4.2925 24.4953C3.15873 24.5036 2.23627 25.4328 2.23627 26.5666V44.8697C2.23627 48.8577 3.1633 52.8586 4.91716 56.44C6.67113 60.0215 9.26341 63.207 12.4138 65.6522L21.3711 72.6041C22.531 73.5043 23.9778 74 25.4448 74C26.9118 74 28.3586 73.5043 29.5188 72.6039L33.6561 69.3929C33.2997 69.8734 33.0886 70.4677 33.0886 71.1104C33.0886 72.7037 34.3848 73.9999 35.9781 73.9999H51.8745C53.4677 73.9999 54.764 72.7037 54.764 71.1104C54.7639 69.9548 54.0817 68.9558 53.099 68.494ZM36.4441 58.7674C37.1528 58.0437 37.8063 57.2677 38.3961 56.4489C39.002 57.1832 39.7091 57.8023 40.4817 58.2531C38.5083 59.4045 36.9595 61.6513 36.4441 64.124V58.7674ZM36.4441 52.3822C36.632 53.2838 36.9581 54.1549 37.3913 54.9542C37.0952 55.3965 36.7786 55.8261 36.4441 56.2422V52.3822ZM37.939 65.881C37.939 62.89 40.0131 59.8444 42.4684 59.2303C42.917 59.1179 43.2303 58.7159 43.2301 58.2527C43.23 57.7896 42.9166 57.3877 42.468 57.2756C40.013 56.6616 37.9389 53.616 37.9389 50.625V48.3971H49.9132V50.625C49.9132 53.616 47.839 56.6616 45.3843 57.2756C44.9356 57.3877 44.6221 57.7895 44.622 58.2527C44.6219 58.7159 44.9351 59.118 45.384 59.2304C47.8391 59.8444 49.9132 62.89 49.9132 65.881V68.2208H37.939V65.881ZM51.4195 64.1802C50.9158 61.6853 49.3589 59.4131 47.3707 58.2531C49.359 57.0929 50.9158 54.8208 51.4195 52.326V64.1802ZM35.978 44.2975H51.8744C52.5415 44.2975 53.0844 44.8403 53.0844 45.5076C53.0844 46.1748 52.5415 46.7177 51.8744 46.7177H35.978C35.3107 46.7177 34.7679 46.1749 34.7679 45.5076C34.768 44.8404 35.3108 44.2975 35.978 44.2975ZM51.8744 72.3205H35.978C35.3107 72.3205 34.7679 71.7777 34.7679 71.1104C34.7679 70.4432 35.3107 69.9002 35.978 69.9002H51.8744C52.5415 69.9002 53.0844 70.4431 53.0844 71.1104C53.0844 71.7777 52.5415 72.3205 51.8744 72.3205Z" fill="black"/>
<path d="M21.5974 52.5241H21.609C22.3857 52.5241 23.107 52.1742 23.5876 51.5641L34.2028 38.0934C34.6194 37.5648 34.8051 36.9057 34.7259 36.2375C34.6467 35.5692 34.312 34.9718 33.7834 34.5555C33.2548 34.139 32.5958 33.9533 31.9277 34.0323C31.2594 34.1115 30.662 34.4463 30.2456 34.9748L21.6375 45.8985L17.723 40.787C16.8787 39.6842 15.2944 39.4738 14.1911 40.3185C13.6568 40.7276 13.3139 41.3203 13.2254 41.9874C13.1369 42.6545 13.3135 43.3161 13.7226 43.8504L19.6089 51.5365C20.0854 52.1586 20.808 52.5186 21.5974 52.5241ZM14.8904 42.2082C14.9199 41.9858 15.0342 41.7883 15.2121 41.6521C15.3643 41.5356 15.5437 41.4793 15.722 41.4793C15.9746 41.4793 16.2245 41.5925 16.3895 41.8081L20.9613 47.7778C21.1189 47.9835 21.3629 48.1051 21.6223 48.1069C21.8774 48.1053 22.1272 47.9905 22.2876 47.7868L31.5648 36.0141C31.7035 35.838 31.9025 35.7264 32.1253 35.6999C32.3484 35.674 32.5678 35.7355 32.7441 35.8744C32.9202 36.0132 33.0317 36.2124 33.0581 36.435C33.0845 36.6577 33.0226 36.8774 32.8838 37.0537L22.2686 50.5245C22.1084 50.7278 21.8681 50.8444 21.6091 50.8444H21.6033C21.342 50.8427 21.1011 50.7227 20.9424 50.5153L15.0561 42.829C14.9196 42.6511 14.8607 42.4306 14.8904 42.2082Z" fill="black"/>
</g>
<defs>
<clipPath id="clip0">
<rect y="17" width="57" height="57" fill="white"/>
</clipPath>
</defs>
</svg>
